<svg width="71" height="42" viewBox="0 0 71 42" fill="none" xmlns="http://www.w3.org/2000/svg">
<rect x="2.1" y="2.1" width="65.1" height="37.8" rx="18.9" fill="#E21E27"/>
<path d="M49.2861 0C60.8651 0 70.2829 9.41767 70.2832 20.998C70.2832 32.5785 60.8641 41.9998 49.2852 42H21.002C9.42135 42 0 32.5757 0 20.998C0.000259503 9.42062 9.42299 0 21.002 0H49.2861ZM40.0566 21.9473C38.6109 28.6836 33.8787 31.8262 25.0078 31.8262H7.33105C10.5285 35.844 15.4617 38.4268 20.9844 38.4268H49.2676C54.7902 38.4267 59.7205 35.8474 62.918 31.8281H47.873L47.875 31.8262L40.0566 21.9473ZM54.2119 19.7012L63.6162 30.8867C65.5645 28.0722 66.7089 24.6592 66.709 20.9844C66.709 17.1055 65.4349 13.5175 63.2842 10.6172L54.2119 19.7012ZM13.4795 24.0273H23.5996C26.5914 24.0273 27.4964 22.7886 28.166 20.4043C28.8282 18.0466 27.1635 17.1319 25.1191 17.1318H15.9883L13.4795 24.0273ZM20.9834 3.54199C15.6782 3.54214 10.9186 5.9222 7.7168 9.6709H27.5596L27.5605 9.67188C34.5837 9.67188 39.8754 11.4595 40.4209 17.377L47.8125 9.6709H62.5312C59.3294 5.92368 54.5713 3.5421 49.2676 3.54199H20.9834Z" fill="white"/>
</svg>
